<mxfile host="app.diagrams.net" agent="Mozilla/5.0 (Windows NT 10.0; Win64; x64) AppleWebKit/537.36 (KHTML, like Gecko) Chrome/130.0.0.0 Safari/537.36 Edg/130.0.0.0" version="24.8.2">
  <diagram name="Page-1" id="7s0Pv6Bbgt6IDYVxhlQu">
    <mxGraphModel dx="1213" dy="627" grid="1" gridSize="10" guides="1" tooltips="1" connect="1" arrows="1" fold="1" page="1" pageScale="1" pageWidth="850" pageHeight="1100" math="0" shadow="0">
      <root>
        <mxCell id="0" />
        <mxCell id="1" parent="0" />
        <mxCell id="t0FifiG09_2KEXryFSh6-8" value="" style="rounded=1;whiteSpace=wrap;html=1;" vertex="1" parent="1">
          <mxGeometry x="190" y="255" width="420" height="200" as="geometry" />
        </mxCell>
        <mxCell id="t0FifiG09_2KEXryFSh6-16" style="edgeStyle=orthogonalEdgeStyle;rounded=0;orthogonalLoop=1;jettySize=auto;html=1;exitX=0;exitY=0.5;exitDx=0;exitDy=0;entryX=0;entryY=0.5;entryDx=0;entryDy=0;" edge="1" parent="1" source="t0FifiG09_2KEXryFSh6-9" target="t0FifiG09_2KEXryFSh6-10">
          <mxGeometry relative="1" as="geometry" />
        </mxCell>
        <mxCell id="t0FifiG09_2KEXryFSh6-9" value="Лаба 1" style="html=1;align=center;verticalAlign=top;rounded=1;absoluteArcSize=1;arcSize=10;dashed=0;whiteSpace=wrap;" vertex="1" parent="1">
          <mxGeometry x="230" y="290" width="140" height="40" as="geometry" />
        </mxCell>
        <mxCell id="t0FifiG09_2KEXryFSh6-21" style="edgeStyle=orthogonalEdgeStyle;rounded=0;orthogonalLoop=1;jettySize=auto;html=1;exitX=0.5;exitY=0;exitDx=0;exitDy=0;entryX=0;entryY=0.5;entryDx=0;entryDy=0;" edge="1" parent="1" source="t0FifiG09_2KEXryFSh6-10" target="t0FifiG09_2KEXryFSh6-11">
          <mxGeometry relative="1" as="geometry" />
        </mxCell>
        <mxCell id="t0FifiG09_2KEXryFSh6-10" value="Лаба 2" style="html=1;align=center;verticalAlign=top;rounded=1;absoluteArcSize=1;arcSize=10;dashed=0;whiteSpace=wrap;" vertex="1" parent="1">
          <mxGeometry x="335" y="380" width="140" height="40" as="geometry" />
        </mxCell>
        <mxCell id="t0FifiG09_2KEXryFSh6-50" style="edgeStyle=orthogonalEdgeStyle;rounded=0;orthogonalLoop=1;jettySize=auto;html=1;exitX=0.5;exitY=0;exitDx=0;exitDy=0;entryX=0.5;entryY=0;entryDx=0;entryDy=0;" edge="1" parent="1" source="t0FifiG09_2KEXryFSh6-11" target="t0FifiG09_2KEXryFSh6-49">
          <mxGeometry relative="1" as="geometry" />
        </mxCell>
        <mxCell id="t0FifiG09_2KEXryFSh6-11" value="Лаба 3" style="html=1;align=center;verticalAlign=top;rounded=1;absoluteArcSize=1;arcSize=10;dashed=0;whiteSpace=wrap;" vertex="1" parent="1">
          <mxGeometry x="440" y="280" width="140" height="40" as="geometry" />
        </mxCell>
        <mxCell id="t0FifiG09_2KEXryFSh6-15" style="edgeStyle=orthogonalEdgeStyle;rounded=0;orthogonalLoop=1;jettySize=auto;html=1;exitX=1;exitY=0.5;exitDx=0;exitDy=0;entryX=0.5;entryY=1;entryDx=0;entryDy=0;" edge="1" parent="1" source="t0FifiG09_2KEXryFSh6-9" target="t0FifiG09_2KEXryFSh6-9">
          <mxGeometry relative="1" as="geometry" />
        </mxCell>
        <mxCell id="t0FifiG09_2KEXryFSh6-17" value="Не здана" style="text;html=1;align=center;verticalAlign=middle;resizable=0;points=[];autosize=1;strokeColor=none;fillColor=none;" vertex="1" parent="1">
          <mxGeometry x="300" y="330" width="70" height="30" as="geometry" />
        </mxCell>
        <mxCell id="t0FifiG09_2KEXryFSh6-18" style="edgeStyle=orthogonalEdgeStyle;rounded=0;orthogonalLoop=1;jettySize=auto;html=1;exitX=1;exitY=0.5;exitDx=0;exitDy=0;entryX=0.5;entryY=1;entryDx=0;entryDy=0;" edge="1" parent="1" source="t0FifiG09_2KEXryFSh6-10" target="t0FifiG09_2KEXryFSh6-10">
          <mxGeometry relative="1" as="geometry" />
        </mxCell>
        <mxCell id="t0FifiG09_2KEXryFSh6-19" value="Не здана" style="text;html=1;align=center;verticalAlign=middle;resizable=0;points=[];autosize=1;strokeColor=none;fillColor=none;" vertex="1" parent="1">
          <mxGeometry x="405" y="420" width="70" height="30" as="geometry" />
        </mxCell>
        <mxCell id="t0FifiG09_2KEXryFSh6-20" value="Здана" style="text;html=1;align=center;verticalAlign=middle;resizable=0;points=[];autosize=1;strokeColor=none;fillColor=none;" vertex="1" parent="1">
          <mxGeometry x="220" y="370" width="60" height="30" as="geometry" />
        </mxCell>
        <mxCell id="t0FifiG09_2KEXryFSh6-22" value="Здана" style="text;html=1;align=center;verticalAlign=middle;resizable=0;points=[];autosize=1;strokeColor=none;fillColor=none;" vertex="1" parent="1">
          <mxGeometry x="400" y="340" width="60" height="30" as="geometry" />
        </mxCell>
        <mxCell id="t0FifiG09_2KEXryFSh6-23" style="edgeStyle=orthogonalEdgeStyle;rounded=0;orthogonalLoop=1;jettySize=auto;html=1;exitX=1;exitY=0.5;exitDx=0;exitDy=0;entryX=0.5;entryY=1;entryDx=0;entryDy=0;" edge="1" parent="1" source="t0FifiG09_2KEXryFSh6-11" target="t0FifiG09_2KEXryFSh6-11">
          <mxGeometry relative="1" as="geometry" />
        </mxCell>
        <mxCell id="t0FifiG09_2KEXryFSh6-24" value="Не здана" style="text;html=1;align=center;verticalAlign=middle;resizable=0;points=[];autosize=1;strokeColor=none;fillColor=none;" vertex="1" parent="1">
          <mxGeometry x="510" y="320" width="70" height="30" as="geometry" />
        </mxCell>
        <mxCell id="t0FifiG09_2KEXryFSh6-26" style="edgeStyle=orthogonalEdgeStyle;rounded=0;orthogonalLoop=1;jettySize=auto;html=1;exitX=0.5;exitY=1;exitDx=0;exitDy=0;entryX=0.5;entryY=0;entryDx=0;entryDy=0;" edge="1" parent="1" source="t0FifiG09_2KEXryFSh6-25" target="t0FifiG09_2KEXryFSh6-8">
          <mxGeometry relative="1" as="geometry" />
        </mxCell>
        <mxCell id="t0FifiG09_2KEXryFSh6-25" value="" style="ellipse;fillColor=strokeColor;html=1;" vertex="1" parent="1">
          <mxGeometry x="385" y="70" width="30" height="30" as="geometry" />
        </mxCell>
        <mxCell id="t0FifiG09_2KEXryFSh6-36" value="Здана" style="text;html=1;align=center;verticalAlign=middle;resizable=0;points=[];autosize=1;strokeColor=none;fillColor=none;" vertex="1" parent="1">
          <mxGeometry x="600" y="230" width="60" height="30" as="geometry" />
        </mxCell>
        <mxCell id="t0FifiG09_2KEXryFSh6-57" style="edgeStyle=orthogonalEdgeStyle;rounded=0;orthogonalLoop=1;jettySize=auto;html=1;exitX=0.25;exitY=1;exitDx=0;exitDy=0;entryX=1;entryY=0.5;entryDx=0;entryDy=0;" edge="1" parent="1" source="t0FifiG09_2KEXryFSh6-49" target="t0FifiG09_2KEXryFSh6-58">
          <mxGeometry relative="1" as="geometry">
            <mxPoint x="450" y="630" as="targetPoint" />
          </mxGeometry>
        </mxCell>
        <mxCell id="t0FifiG09_2KEXryFSh6-49" value="Курсова" style="html=1;align=center;verticalAlign=top;rounded=1;absoluteArcSize=1;arcSize=10;dashed=0;whiteSpace=wrap;" vertex="1" parent="1">
          <mxGeometry x="660" y="280" width="140" height="40" as="geometry" />
        </mxCell>
        <mxCell id="t0FifiG09_2KEXryFSh6-54" value="Не здана" style="text;html=1;align=center;verticalAlign=middle;resizable=0;points=[];autosize=1;strokeColor=none;fillColor=none;" vertex="1" parent="1">
          <mxGeometry x="730" y="320" width="70" height="30" as="geometry" />
        </mxCell>
        <mxCell id="t0FifiG09_2KEXryFSh6-56" style="edgeStyle=orthogonalEdgeStyle;rounded=0;orthogonalLoop=1;jettySize=auto;html=1;exitX=0.5;exitY=1;exitDx=0;exitDy=0;entryX=1;entryY=0.5;entryDx=0;entryDy=0;" edge="1" parent="1" source="t0FifiG09_2KEXryFSh6-49" target="t0FifiG09_2KEXryFSh6-49">
          <mxGeometry relative="1" as="geometry" />
        </mxCell>
        <mxCell id="t0FifiG09_2KEXryFSh6-63" style="edgeStyle=orthogonalEdgeStyle;rounded=0;orthogonalLoop=1;jettySize=auto;html=1;exitX=0.25;exitY=1;exitDx=0;exitDy=0;entryX=0.5;entryY=0;entryDx=0;entryDy=0;" edge="1" parent="1" source="t0FifiG09_2KEXryFSh6-58" target="t0FifiG09_2KEXryFSh6-64">
          <mxGeometry relative="1" as="geometry">
            <mxPoint x="370" y="760" as="targetPoint" />
          </mxGeometry>
        </mxCell>
        <mxCell id="t0FifiG09_2KEXryFSh6-58" value="Іспит" style="html=1;align=center;verticalAlign=top;rounded=1;absoluteArcSize=1;arcSize=10;dashed=0;whiteSpace=wrap;" vertex="1" parent="1">
          <mxGeometry x="335" y="490" width="140" height="40" as="geometry" />
        </mxCell>
        <mxCell id="t0FifiG09_2KEXryFSh6-64" value="" style="ellipse;html=1;shape=endState;fillColor=strokeColor;" vertex="1" parent="1">
          <mxGeometry x="355" y="610" width="30" height="30" as="geometry" />
        </mxCell>
        <mxCell id="t0FifiG09_2KEXryFSh6-65" value="Зданий" style="text;html=1;align=center;verticalAlign=middle;resizable=0;points=[];autosize=1;strokeColor=none;fillColor=none;" vertex="1" parent="1">
          <mxGeometry x="300" y="560" width="60" height="30" as="geometry" />
        </mxCell>
        <mxCell id="t0FifiG09_2KEXryFSh6-62" value="Не зданий" style="text;html=1;align=center;verticalAlign=middle;resizable=0;points=[];autosize=1;strokeColor=none;fillColor=none;" vertex="1" parent="1">
          <mxGeometry x="400" y="530" width="80" height="30" as="geometry" />
        </mxCell>
        <mxCell id="t0FifiG09_2KEXryFSh6-67" style="edgeStyle=orthogonalEdgeStyle;rounded=0;orthogonalLoop=1;jettySize=auto;html=1;exitX=1;exitY=1;exitDx=0;exitDy=0;entryX=0.8;entryY=0.422;entryDx=0;entryDy=0;entryPerimeter=0;" edge="1" parent="1" source="t0FifiG09_2KEXryFSh6-64" target="t0FifiG09_2KEXryFSh6-64">
          <mxGeometry relative="1" as="geometry" />
        </mxCell>
        <mxCell id="t0FifiG09_2KEXryFSh6-68" style="edgeStyle=orthogonalEdgeStyle;rounded=0;orthogonalLoop=1;jettySize=auto;html=1;exitX=0.5;exitY=1;exitDx=0;exitDy=0;entryX=1;entryY=0.75;entryDx=0;entryDy=0;" edge="1" parent="1" source="t0FifiG09_2KEXryFSh6-58" target="t0FifiG09_2KEXryFSh6-58">
          <mxGeometry relative="1" as="geometry" />
        </mxCell>
      </root>
    </mxGraphModel>
  </diagram>
</mxfile>
